<svg xmlns="http://www.w3.org/2000/svg" viewBox="0 0 526.3 163.13"><title>glasses</title><g id="Layer_2" data-name="Layer 2"><g id="Layer_1-2" data-name="Layer 1"><path d="M525.4,15.63,523,47.23s-6.1.5-9.9,15.1c0,0-10.4,48.1-15.6,58.5,0,0-9,25.5-35.4,33.5,0,0-19.8,8-68,8,0,0-32-.5-56-14.6,0,0-24-10.5-39.6-47.9,0,0-12.7-28.9-16-33.6,0,0-4-10.8-19.5-9.9-15.4-.9-19.4,9.9-19.4,9.9-3.3,4.7-16,33.6-16,33.6-15.6,37.4-39.6,47.9-39.6,47.9-24,14.1-56,14.6-56,14.6-48.1,0-67.9-8-67.9-8-26.4-8-35.4-33.5-35.4-33.5-5.2-10.4-15.6-58.5-15.6-58.5-3.8-14.6-9.9-15.1-9.9-15.1L.8,15.63c13.6-3.8,35.3-8,35.3-8,42.4-9.4,97.1-6.1,97.1-6.1,29.7.9,91.8,15.6,91.8,15.6,23.7,6.7,38,6.3,38,6.3s14.3.4,38-6.3c0,0,62.1-14.7,91.8-15.6,0,0,54.7-3.3,97.1,6.1C490.1,7.63,511.9,11.83,525.4,15.63Zm-32.9,68.8s3.8-23.6-3.5-43.4c0,0-6-23.8-47.4-28,0,0-26.1-2.6-44.6-2,0,0-30.2,1.4-48.8,5.9,0,0-32.1,5.7-42.1,24,0,0-10.7,17,4.7,59.1,0,0,8.5,29.2,40.5,43.7,0,0,23.9,12.3,65.4,10.4,0,0,38.1-.9,54.7-18.5C471.4,135.63,484.3,127.53,492.5,84.43Zm-276.9,15.7C231,58,220.3,41,220.3,41c-10.1-18.4-42.1-24-42.1-24-18.6-4.5-48.8-5.9-48.8-5.9-18.4-.6-44.5,2-44.5,2-41.5,4.2-47.5,28-47.5,28-7.2,19.8-3.5,43.4-3.5,43.4,8.2,43,21.1,51.2,21.1,51.2,16.7,17.6,54.7,18.5,54.7,18.5,41.5,1.9,65.4-10.4,65.4-10.4C207.1,129.33,215.6,100.13,215.6,100.13Z"/><path d="M132.1,163.13c-47.8,0-67.5-7.8-68.3-8.1-26.5-8-35.8-33.8-35.9-34-5.1-10.3-15.2-56.6-15.6-58.6-3.5-13.6-9-14.3-9.1-14.3L2.4,48l-.1-.8L0,14.93l.7-.2c13.5-3.7,35.2-8,35.4-8,42.1-9.3,96.8-6.2,97.4-6.1,29.4.9,91.3,15.5,91.9,15.6,23.3,6.6,37.6,6.3,37.7,6.3l.1,1.9c-.1,0-14.7.3-38.3-6.4-.6-.1-62.3-14.6-91.5-15.6-.6,0-55.1-3.2-96.9,6.1-.2,0-21.1,4.1-34.5,7.8l2.2,30.1c1.9.6,6.8,3.5,9.9,15.6.1.5,10.4,48.1,15.5,58.3.1.4,9.2,25.2,34.8,33,.3.1,20.3,8,67.7,8,.3,0,32-.6,55.6-14.5.3-.2,24-10.9,39.2-47.5.5-1.2,12.6-28.8,16.1-33.7.5-1.3,5.3-11.3,20.3-10.4l-.1,1.9c-14.6-.9-18.5,9.2-18.5,9.3l-.1.2c-3.2,4.6-15.8,33.2-15.9,33.5-15.5,37.3-39.8,48.3-40.1,48.4C164.6,162.53,132.4,163.13,132.1,163.13Z"/><path d="M118.4,155.33c-2.9,0-5.8-.1-8.7-.2-1.5,0-38.5-1.2-55.3-18.8-1.4-.9-13.5-10.4-21.4-51.8,0-.3-3.7-24.1,3.5-43.9.2-.9,6.6-24.4,48.3-28.6.2,0,26.4-2.6,44.7-2,.3,0,30.5,1.5,49,5.9,1.3.2,32.6,5.9,42.7,24.5.4.7,10.7,17.8-4.7,59.9a77.68,77.68,0,0,1-41,44.2C175.3,144.73,154.3,155.33,118.4,155.33Zm5.2-143.4c-17.4,0-38.4,2-38.6,2.1-40.4,4.1-46.6,27-46.6,27.3-7.1,19.4-3.5,42.8-3.5,43,8,41.9,20.5,50.5,20.6,50.6l.2.1c16.2,17.1,53.7,18.2,54,18.2,2.9.1,5.8.2,8.6.2,35.5,0,56.1-10.4,56.3-10.5,31.3-14.1,40-42.8,40.1-43.1,7.9-21.5,8.7-36.2,8.1-44.8-.7-9.2-3.3-13.5-3.3-13.5-9.7-17.8-41.2-23.6-41.5-23.6-18.4-4.4-48.4-5.9-48.7-5.9C127.5,12,125.6,11.93,123.6,11.93Z"/><path d="M394.3,163.13c-.3,0-32.5-.6-56.5-14.7-.1-.1-24.5-11.1-40-48.4-.1-.3-12.7-28.9-15.9-33.5l-.1-.2c-.2-.4-4-10.1-18.5-9.3l-.1-1.9c15-.9,19.8,9.1,20.3,10.4,3.4,5,15.5,32.5,16.1,33.7,15.2,36.6,38.9,47.3,39.1,47.4,23.7,13.9,55.3,14.5,55.6,14.5,47.4,0,67.4-7.9,67.6-7.9,25.7-7.8,34.7-32.7,34.8-32.9,5.1-10.3,15.4-57.9,15.5-58.3,3.1-12.2,8-15,9.9-15.6l2.2-30.1c-13.4-3.7-34.3-7.8-34.5-7.8-41.8-9.3-96.3-6.1-96.9-6.1-29.3.9-91,15.4-91.6,15.6-23.5,6.7-38.1,6.4-38.2,6.3l.1-1.9c.1,0,14.4.3,37.7-6.3.7-.2,62.6-14.7,92-15.6.5,0,55.3-3.2,97.3,6.1.2,0,21.9,4.3,35.4,8l.7.2L523.8,48l-.8.1s-5.6.8-9.1,14.4c-.4,1.9-10.4,48.3-15.6,58.6,0,.2-9.4,25.9-35.9,34C461.8,155.43,442.1,163.13,394.3,163.13Z"/><path d="M408.1,155.33h0c-36,0-57-10.6-57.2-10.7-32-14.5-40.9-44-41-44.3-15.3-42-5.1-59.1-4.6-59.8C315.4,22,346.7,16.33,348.1,16c18.4-4.4,48.6-5.9,48.9-5.9,2-.1,4-.1,6.1-.1,17.5,0,38.4,2,38.6,2.1,41.7,4.2,48,27.7,48.3,28.7,7.2,19.7,3.5,43.5,3.5,43.7-7.9,41.4-20,50.9-21.4,51.8-16.7,17.6-53.7,18.7-55.3,18.8C413.8,155.23,410.9,155.33,408.1,155.33ZM403,12c-2.1,0-4.1,0-6,.1-.3,0-30.3,1.4-48.6,5.9-.4.1-31.8,5.8-41.5,23.6-.1.2-10.2,17.2,4.8,58.3.1.3,8.8,29,40,43.2.2.1,20.9,10.5,56.4,10.5,2.9,0,5.7-.1,8.6-.2.4,0,37.9-1.1,54-18.2l.2-.1c.1-.1,12.7-8.7,20.7-50.6,0-.2,3.6-23.5-3.4-42.9-.1-.3-6.4-23.3-46.7-27.3C441.2,14,420.4,12,403,12Z"/><path d="M21.5,27.43a22.93,22.93,0,0,0-7.7.3,11.26,11.26,0,0,0-4.2,2.2s-2.7,2.2.1,4.3c0,0,3.1,2.7,9,2.5,0,0,5.2-.4,7.6-2.5,0,0,3.5-2.2,1-4.7A12.32,12.32,0,0,0,21.5,27.43Z"/><path d="M504.9,27.43a22.93,22.93,0,0,1,7.7.3,11.26,11.26,0,0,1,4.2,2.2s2.7,2.2-.1,4.3c0,0-3.1,2.7-9,2.5,0,0-5.2-.4-7.6-2.5,0,0-3.5-2.2-1-4.7A12.32,12.32,0,0,1,504.9,27.43Z"/></g></g></svg>