<svg xmlns="http://www.w3.org/2000/svg" viewBox="0 0 90 38"><title>skiglass</title><g id="Layer_2" data-name="Layer 2"><g id="Layer_1-2" data-name="Layer 1"><path d="M23,0A13,13,0,0,0,11,8H2.69A3,3,0,0,0,0,11V27a3,3,0,0,0,3,3h7.66a12.34,12.34,0,0,0,1.84,3.81A10.44,10.44,0,0,0,21,38H31c5.21,0,8.56-4.08,10.66-7.44A34.16,34.16,0,0,0,44,26H46a34.16,34.16,0,0,0,2.38,4.56C50.44,33.92,53.79,38,59,38H69a10.44,10.44,0,0,0,8.5-4.19A12.34,12.34,0,0,0,79.34,30H87a3,3,0,0,0,3-3V11a3,3,0,0,0-2.69-3H79A13,13,0,0,0,67,0H23Zm0,6H67a6.92,6.92,0,0,1,7,7V25a9.36,9.36,0,0,1-1.34,5.31A3.86,3.86,0,0,1,69,32H59c-1.79,0-3.94-1.95-5.59-4.59A28.4,28.4,0,0,1,50.84,22,3,3,0,0,0,48,20H42a3,3,0,0,0-2.84,2,28.4,28.4,0,0,1-2.56,5.38C34.94,30.05,32.79,32,31,32H21a3.86,3.86,0,0,1-3.66-1.69A9.36,9.36,0,0,1,16,25V13A6.92,6.92,0,0,1,23,6ZM6,14h4V24H6Zm74,0h4V24H80Z"/></g></g></svg>